<svg xmlns="http://www.w3.org/2000/svg" width="40" height="40" viewBox="0 0 40 40" fill="none">
<path d="M27.2727 3.63637H17.1576C16.6003 3.63718 16.0484 3.52783 15.5336 3.31461C15.0187 3.10139 14.5511 2.78851 14.1576 2.39395L13.3636 1.60001C12.8588 1.0918 12.2582 0.688724 11.5966 0.414091C10.9349 0.139458 10.2254 -0.00128221 9.50909 8.80182e-06H3.0303C2.22671 0.000299546 1.45611 0.319656 0.887876 0.887885C0.319647 1.45611 0.000290744 2.22671 0 3.03031V21.2121C0.000290744 22.0157 0.319647 22.7863 0.887876 23.3546C1.45611 23.9228 2.22671 24.2421 3.0303 24.2424H14.5455V12.7273C14.5467 11.6025 14.9941 10.5241 15.7894 9.7288C16.5847 8.93346 17.6631 8.48609 18.7879 8.48485H30.303V6.66667C30.3027 5.86308 29.9834 5.09248 29.4151 4.52425C28.8469 3.95602 28.0763 3.63666 27.2727 3.63637ZM6.06061 12.7273C6.06013 12.8879 5.99612 13.0417 5.88256 13.1553C5.76901 13.2689 5.61513 13.3329 5.45454 13.3333H3.0303C2.86971 13.3329 2.71584 13.2689 2.60228 13.1553C2.48873 13.0417 2.42472 12.8879 2.42424 12.7273V10.303C2.42472 10.1424 2.48873 9.98857 2.60228 9.87502C2.71584 9.76146 2.86971 9.69746 3.0303 9.69698H5.45454C5.61513 9.69746 5.76901 9.76146 5.88256 9.87502C5.99612 9.98857 6.06013 10.1424 6.06061 10.303V12.7273ZM6.66667 7.87879C6.66619 8.03938 6.60218 8.19326 6.48863 8.30681C6.37507 8.42037 6.22119 8.48438 6.06061 8.48485H3.0303C2.86971 8.48438 2.71584 8.42037 2.60228 8.30681C2.48873 8.19326 2.42472 8.03938 2.42424 7.87879V4.84849C2.42472 4.6879 2.48873 4.53403 2.60228 4.42047C2.71584 4.30692 2.86971 4.24291 3.0303 4.24243H6.06061C6.22119 4.24291 6.37507 4.30692 6.48863 4.42047C6.60218 4.53403 6.66619 4.6879 6.66667 4.84849V7.87879Z" fill="#EC6607"/>
<path opacity="0.9" d="M36.9694 9.69702H18.7876C17.984 9.69731 17.2134 10.0167 16.6452 10.5849C16.077 11.1531 15.7576 11.9237 15.7573 12.7273V36.9697C15.7576 37.7733 16.077 38.5439 16.6452 39.1122C17.2134 39.6804 17.984 39.9998 18.7876 40H36.9694C37.773 39.9998 38.5436 39.6804 39.1119 39.1122C39.6801 38.5439 39.9995 37.7733 39.9997 36.9697V12.7273C39.9995 11.9237 39.6801 11.1531 39.1119 10.5849C38.5436 10.0167 37.773 9.69731 36.9694 9.69702ZM20.9634 33.0849C21.0745 32.971 21.2074 32.8806 21.3543 32.8191C21.5011 32.7577 21.6588 32.7265 21.8179 32.7273H33.9391C34.2603 32.7283 34.5681 32.8563 34.7952 33.0834C35.0223 33.3105 35.1503 33.6183 35.1513 33.9394C35.1489 34.2602 35.0205 34.5672 34.7937 34.794C34.5669 35.0208 34.2599 35.1492 33.9391 35.1516H21.8179C21.4967 35.1506 21.189 35.0226 20.9619 34.7955C20.7348 34.5684 20.6068 34.2606 20.6058 33.9394C20.605 33.7803 20.6362 33.6226 20.6976 33.4758C20.7591 33.329 20.8495 33.196 20.9634 33.0849ZM34.7937 28.7334C34.6826 28.8473 34.5496 28.9377 34.4028 28.9991C34.256 29.0606 34.0983 29.0918 33.9391 29.091H21.8179C21.4967 29.09 21.189 28.962 20.9619 28.7349C20.7348 28.5078 20.6068 28.2 20.6058 27.8788C20.6081 27.5581 20.7366 27.2511 20.9634 27.0243C21.1902 26.7975 21.4972 26.669 21.8179 26.6667H33.9391C34.2603 26.6677 34.5681 26.7957 34.7952 27.0228C35.0223 27.2499 35.1503 27.5576 35.1513 27.8788C35.1521 28.038 35.1209 28.1957 35.0594 28.3425C34.998 28.4893 34.9076 28.6223 34.7937 28.7334ZM34.7937 22.6728C34.6826 22.7867 34.5496 22.8771 34.4028 22.9385C34.256 23 34.0983 23.0312 33.9391 23.0304H21.8179C21.4967 23.0294 21.189 22.9014 20.9619 22.6743C20.7348 22.4472 20.6068 22.1394 20.6058 21.8182C20.6081 21.4975 20.7366 21.1905 20.9634 20.9637C21.1902 20.7369 21.4972 20.6084 21.8179 20.6061H33.9391C34.2603 20.607 34.5681 20.7351 34.7952 20.9622C35.0223 21.1893 35.1503 21.497 35.1513 21.8182C35.1521 21.9774 35.1209 22.1351 35.0594 22.2819C34.998 22.4287 34.9076 22.5617 34.7937 22.6728ZM34.7937 16.6122C34.6826 16.7261 34.5496 16.8165 34.4028 16.8779C34.256 16.9394 34.0983 16.9706 33.9391 16.9697H21.8179C21.4967 16.9688 21.189 16.8408 20.9619 16.6137C20.7348 16.3866 20.6068 16.0788 20.6058 15.7576C20.6081 15.4369 20.7366 15.1299 20.9634 14.9031C21.1902 14.6763 21.4972 14.5478 21.8179 14.5455H33.9391C34.2603 14.5464 34.5681 14.6745 34.7952 14.9016C35.0223 15.1287 35.1503 15.4364 35.1513 15.7576C35.1521 15.9168 35.1209 16.0745 35.0594 16.2213C34.998 16.3681 34.9076 16.501 34.7937 16.6122Z" fill="#144A7C"/>
</svg>