<svg xmlns="http://www.w3.org/2000/svg" width="115" height="108" viewBox="0 0 115 108" fill="none">
  <path d="M112.334 0L62.989 36.5858L72.1652 15.0247L112.334 0Z" fill="#E17726"/>
  <path d="M2.78112 0.0432119L42.8429 15.0274L51.5559 36.8711L2.78112 0.0432119ZM92.4762 77.8078L114.286 78.2237L106.664 104.17L80.0508 96.8279L92.4762 77.8078ZM22.5234 77.8078L34.9025 96.8279L8.33436 104.17L0.758291 78.2237L22.5234 77.8078Z" fill="#E27625"/>
  <path d="M50.3713 31.3071L51.2626 60.1525L24.592 58.9368L32.1784 47.4684L32.2746 47.3582L50.3713 31.3071ZM64.3524 30.9853L82.7254 47.3591L82.8207 47.4689L90.4071 58.9372L63.7423 60.1525L64.3524 30.9853ZM35.6837 77.8915L50.2465 89.2613L33.3298 97.445L35.6837 77.8915ZM79.319 77.8897L81.6239 97.4455L64.7544 89.2604L79.319 77.8897Z" fill="#E27625"/>
  <path d="M65.1268 88.1895L82.2452 96.4952L66.3217 104.078L66.487 99.0664L65.1268 88.1895ZM49.8682 88.1931L48.5614 98.9844L48.6688 104.072L32.708 96.4952L49.8682 88.1931Z" fill="#D5BFB2"/>
  <path d="M44.925 63.9174L49.3983 73.3376L34.1685 68.867L44.925 63.9174ZM70.0745 63.9183L80.8818 68.867L65.6021 73.3363L70.0745 63.9183Z" fill="#233447"/>
  <path d="M36.8476 77.7952L34.3859 98.0689L21.191 78.2386L36.8476 77.7952ZM78.1532 77.7957L93.8103 78.2386L80.566 98.0698L78.1532 77.7957ZM90.7925 57.7903L79.398 69.4265L70.6127 65.4037L66.4066 74.264L63.6493 59.0277L90.7925 57.7903ZM24.2016 57.7903L51.3502 59.0277L48.5924 74.264L44.3855 65.4051L35.6468 69.4269L24.2016 57.7903Z" fill="#CC6228"/>
  <path d="M23.4339 55.4024L36.3256 68.5105L36.7721 81.4511L23.4339 55.4024ZM91.579 55.379L78.2166 81.4741L78.7197 68.5105L91.579 55.379ZM50.7199 56.2009L51.2387 59.4733L52.5208 67.6255L51.6965 92.6638L47.7995 72.5499L47.7982 72.3419L50.7199 56.2009ZM64.2733 56.1554L67.2026 72.3419L67.2013 72.5499L63.2944 92.7142L62.5303 67.477L64.2733 56.1554Z" fill="#E27525"/>
  <path d="M79.8657 67.9897L79.4295 79.2329L65.8298 89.85L63.0806 87.9037L66.1623 71.9985L79.8657 67.9897ZM35.1814 67.9897L48.8372 71.9985L51.9189 87.9037L49.1697 89.85L35.5696 79.232L35.1814 67.9897Z" fill="#F5841F"/>
  <path d="M30.1057 94.0123L47.5049 102.273L47.4312 98.7454L48.8871 97.4648H66.1075L67.6159 98.7409L67.5045 102.266L84.7936 94.0331L76.3806 100.999L66.2081 108H48.7474L38.5816 100.97L30.1057 94.0123Z" fill="#C0AC9D"/>
  <path d="M63.8807 87.0899L66.3406 88.8314L67.7822 100.356L65.696 98.5915H49.3103L47.2637 100.392L48.658 88.8323L51.1189 87.0899H63.8807Z" fill="#161616"/>
  <path d="M109.077 1.01279L115 18.8184L111.301 36.8221L113.935 38.858L110.37 41.5831L113.049 43.6563L109.502 46.8932L111.68 48.4736L105.9 55.2372L82.1949 48.321L81.9896 48.2107L64.9072 33.7716L109.077 1.01279ZM5.9234 1.01279L50.0933 33.7716L33.0104 48.2107L32.8051 48.321L9.09982 55.2372L3.32018 48.4736L5.49619 46.8945L1.95096 43.6563L4.62471 41.5853L1.0067 38.8526L3.7402 36.8153L0 18.8193L5.9234 1.01279Z" fill="#763E1A"/>
  <path d="M81.0355 46.8086L106.153 54.1362L114.313 79.3369H92.7843L77.9511 79.5242L88.7387 58.4547L81.0355 46.8086ZM33.9645 46.8086L26.26 58.4547L37.0489 79.5242L22.2224 79.3369H0.732671L8.84691 54.1366L33.9645 46.8086ZM73.3952 14.9046L66.3698 33.9174L64.8789 59.6016L64.3084 67.6521L64.263 88.2174H50.7366L50.6925 67.6908L50.1202 59.5948L48.6288 33.9174L41.6044 14.9046H73.3952Z" fill="#F5841F"/>
</svg>